<svg width="308" height="388" viewBox="0 0 308 388" fill="none" xmlns="http://www.w3.org/2000/svg">
<g filter="url(#filter0_d)">
<mask id="path-1-inside-1" fill="white">
<path d="M301 150C301 179.667 292.203 208.668 275.72 233.336C259.238 258.003 235.811 277.229 208.403 288.582C180.994 299.935 150.834 302.906 121.736 297.118C92.6393 291.33 65.9119 277.044 44.934 256.066C23.9561 235.088 9.66999 208.361 3.88221 179.264C-1.90558 150.166 1.06493 120.006 12.4181 92.5975C23.7712 65.1886 42.9971 41.7618 67.6645 25.2796C92.3318 8.79735 121.333 -3.53778e-07 151 0L151 99.7102C141.054 99.7102 131.331 102.66 123.06 108.186C114.79 113.711 108.345 121.566 104.538 130.755C100.732 139.944 99.7361 150.056 101.676 159.811C103.617 169.566 108.407 178.527 115.44 185.56C122.473 192.593 131.434 197.383 141.189 199.324C150.944 201.264 161.056 200.268 170.245 196.462C179.434 192.655 187.289 186.21 192.814 177.94C198.34 169.669 201.29 159.946 201.29 150H301Z"/>
</mask>
<path d="M301 150C301 179.667 292.203 208.668 275.72 233.336C259.238 258.003 235.811 277.229 208.403 288.582C180.994 299.935 150.834 302.906 121.736 297.118C92.6393 291.33 65.9119 277.044 44.934 256.066C23.9561 235.088 9.66999 208.361 3.88221 179.264C-1.90558 150.166 1.06493 120.006 12.4181 92.5975C23.7712 65.1886 42.9971 41.7618 67.6645 25.2796C92.3318 8.79735 121.333 -3.53778e-07 151 0L151 99.7102C141.054 99.7102 131.331 102.66 123.06 108.186C114.79 113.711 108.345 121.566 104.538 130.755C100.732 139.944 99.7361 150.056 101.676 159.811C103.617 169.566 108.407 178.527 115.44 185.56C122.473 192.593 131.434 197.383 141.189 199.324C150.944 201.264 161.056 200.268 170.245 196.462C179.434 192.655 187.289 186.21 192.814 177.94C198.34 169.669 201.29 159.946 201.29 150H301Z" fill="#810000"/>
<path d="M301 150C301 179.667 292.203 208.668 275.72 233.336C259.238 258.003 235.811 277.229 208.403 288.582C180.994 299.935 150.834 302.906 121.736 297.118C92.6393 291.33 65.9119 277.044 44.934 256.066C23.9561 235.088 9.66999 208.361 3.88221 179.264C-1.90558 150.166 1.06493 120.006 12.4181 92.5975C23.7712 65.1886 42.9971 41.7618 67.6645 25.2796C92.3318 8.79735 121.333 -3.53778e-07 151 0L151 99.7102C141.054 99.7102 131.331 102.66 123.06 108.186C114.79 113.711 108.345 121.566 104.538 130.755C100.732 139.944 99.7361 150.056 101.676 159.811C103.617 169.566 108.407 178.527 115.44 185.56C122.473 192.593 131.434 197.383 141.189 199.324C150.944 201.264 161.056 200.268 170.245 196.462C179.434 192.655 187.289 186.21 192.814 177.94C198.34 169.669 201.29 159.946 201.29 150H301Z" stroke="#630000" stroke-width="20" mask="url(#path-1-inside-1)"/>
</g>
<g filter="url(#filter1_d)">
<path d="M236 9.51431L256.566 42.8082L257.187 43.8135L258.192 44.4344L291.486 65L258.192 85.5656L257.187 86.1865L256.566 87.1918L236 120.486L215.434 87.1918L214.813 86.1865L213.808 85.5656L180.514 65L213.808 44.4344L214.813 43.8135L215.434 42.8082L236 9.51431Z" stroke="#EEEBDD" stroke-width="10" shape-rendering="crispEdges"/>
</g>
<g filter="url(#filter2_d)">
<path d="M153.598 114.5L183.043 165.5C184.198 167.5 182.754 170 180.445 170H121.555C119.246 170 117.802 167.5 118.957 165.5L148.402 114.5C149.557 112.5 152.443 112.5 153.598 114.5Z" stroke="#EEEBDD" stroke-width="10" shape-rendering="crispEdges"/>
</g>
<g filter="url(#filter3_d)">
<path d="M63.125 323.781H47.5312V366H43.6875V323.781H28.125V320.5H63.125V323.781ZM79.5938 366.625C76.7188 366.625 74.1146 365.917 71.7812 364.5C69.4688 363.083 67.6667 361.115 66.375 358.594C65.0833 356.052 64.4375 353.208 64.4375 350.062V348.719C64.4375 345.469 65.0625 342.542 66.3125 339.938C67.5833 337.333 69.3438 335.292 71.5938 333.812C73.8438 332.312 76.2812 331.562 78.9062 331.562C83.0104 331.562 86.2604 332.969 88.6562 335.781C91.0729 338.573 92.2812 342.396 92.2812 347.25V349.344H68.1562V350.062C68.1562 353.896 69.25 357.094 71.4375 359.656C73.6458 362.198 76.4167 363.469 79.75 363.469C81.75 363.469 83.5104 363.104 85.0312 362.375C86.5729 361.646 87.9688 360.479 89.2188 358.875L91.5625 360.656C88.8125 364.635 84.8229 366.625 79.5938 366.625ZM78.9062 334.75C76.0938 334.75 73.7188 335.781 71.7812 337.844C69.8646 339.906 68.6979 342.677 68.2812 346.156H88.5625V345.75C88.4583 342.5 87.5312 339.854 85.7812 337.812C84.0312 335.771 81.7396 334.75 78.9062 334.75ZM112.062 363.469C114.667 363.469 116.844 362.74 118.594 361.281C120.365 359.802 121.323 357.896 121.469 355.562H125.062C124.958 357.625 124.312 359.51 123.125 361.219C121.938 362.906 120.354 364.229 118.375 365.188C116.417 366.146 114.312 366.625 112.062 366.625C107.625 366.625 104.104 365.083 101.5 362C98.9167 358.917 97.625 354.771 97.625 349.562V348.438C97.625 345.104 98.2083 342.156 99.375 339.594C100.542 337.031 102.208 335.052 104.375 333.656C106.562 332.26 109.115 331.562 112.031 331.562C115.74 331.562 118.792 332.667 121.188 334.875C123.604 337.083 124.896 339.99 125.062 343.594H121.469C121.302 340.948 120.344 338.812 118.594 337.188C116.865 335.562 114.677 334.75 112.031 334.75C108.656 334.75 106.031 335.969 104.156 338.406C102.302 340.844 101.375 344.26 101.375 348.656V349.75C101.375 354.062 102.302 357.427 104.156 359.844C106.031 362.26 108.667 363.469 112.062 363.469ZM136.281 337.906C137.51 335.885 139.083 334.323 141 333.219C142.917 332.115 145.01 331.562 147.281 331.562C150.906 331.562 153.604 332.583 155.375 334.625C157.146 336.667 158.042 339.729 158.062 343.812V366H154.344V343.781C154.323 340.76 153.677 338.51 152.406 337.031C151.156 335.552 149.146 334.812 146.375 334.812C144.062 334.812 142.01 335.542 140.219 337C138.448 338.438 137.135 340.385 136.281 342.844V366H132.562V318H136.281V337.906ZM192.562 356.625H176.125L173 366H163.031L179.969 320.5H188.656L205.688 366H195.719L192.562 356.625ZM178.656 349.031H190.031L184.312 332L178.656 349.031ZM238.281 349.406C238.281 354.615 237.094 358.792 234.719 361.938C232.365 365.062 229.177 366.625 225.156 366.625C221.74 366.625 218.979 365.438 216.875 363.062V379H207.844V332.188H216.219L216.531 335.5C218.719 332.875 221.573 331.562 225.094 331.562C229.26 331.562 232.5 333.104 234.812 336.188C237.125 339.271 238.281 343.521 238.281 348.938V349.406ZM229.25 348.75C229.25 345.604 228.688 343.177 227.562 341.469C226.458 339.76 224.844 338.906 222.719 338.906C219.885 338.906 217.938 339.99 216.875 342.156V356C217.979 358.229 219.948 359.344 222.781 359.344C227.094 359.344 229.25 355.812 229.25 348.75ZM274.344 349.406C274.344 354.615 273.156 358.792 270.781 361.938C268.427 365.062 265.24 366.625 261.219 366.625C257.802 366.625 255.042 365.438 252.938 363.062V379H243.906V332.188H252.281L252.594 335.5C254.781 332.875 257.635 331.562 261.156 331.562C265.323 331.562 268.562 333.104 270.875 336.188C273.188 339.271 274.344 343.521 274.344 348.938V349.406ZM265.312 348.75C265.312 345.604 264.75 343.177 263.625 341.469C262.521 339.76 260.906 338.906 258.781 338.906C255.948 338.906 254 339.99 252.938 342.156V356C254.042 358.229 256.01 359.344 258.844 359.344C263.156 359.344 265.312 355.812 265.312 348.75Z" fill="#EEEBDD"/>
</g>
<defs>
<filter id="filter0_d" x="-6.10352e-05" y="0" width="308" height="309" filterUnits="userSpaceOnUse" color-interpolation-filters="sRGB">
<feFlood flood-opacity="0" result="BackgroundImageFix"/>
<feColorMatrix in="SourceAlpha" type="matrix" values="0 0 0 0 0 0 0 0 0 0 0 0 0 0 0 0 0 0 127 0" result="hardAlpha"/>
<feOffset dx="3" dy="5"/>
<feGaussianBlur stdDeviation="2"/>
<feComposite in2="hardAlpha" operator="out"/>
<feColorMatrix type="matrix" values="0 0 0 0 0 0 0 0 0 0 0 0 0 0 0 0 0 0 0.25 0"/>
<feBlend mode="normal" in2="BackgroundImageFix" result="effect1_dropShadow"/>
<feBlend mode="normal" in="SourceGraphic" in2="effect1_dropShadow" result="shape"/>
</filter>
<filter id="filter1_d" x="170" y="0" width="138" height="139" filterUnits="userSpaceOnUse" color-interpolation-filters="sRGB">
<feFlood flood-opacity="0" result="BackgroundImageFix"/>
<feColorMatrix in="SourceAlpha" type="matrix" values="0 0 0 0 0 0 0 0 0 0 0 0 0 0 0 0 0 0 127 0" result="hardAlpha"/>
<feOffset dx="3" dy="5"/>
<feGaussianBlur stdDeviation="2"/>
<feComposite in2="hardAlpha" operator="out"/>
<feColorMatrix type="matrix" values="0 0 0 0 0 0 0 0 0 0 0 0 0 0 0 0 0 0 0.25 0"/>
<feBlend mode="normal" in2="BackgroundImageFix" result="effect1_dropShadow"/>
<feBlend mode="normal" in="SourceGraphic" in2="effect1_dropShadow" result="shape"/>
</filter>
<filter id="filter2_d" x="112.543" y="108" width="82.9136" height="76" filterUnits="userSpaceOnUse" color-interpolation-filters="sRGB">
<feFlood flood-opacity="0" result="BackgroundImageFix"/>
<feColorMatrix in="SourceAlpha" type="matrix" values="0 0 0 0 0 0 0 0 0 0 0 0 0 0 0 0 0 0 127 0" result="hardAlpha"/>
<feOffset dx="3" dy="5"/>
<feGaussianBlur stdDeviation="2"/>
<feComposite in2="hardAlpha" operator="out"/>
<feColorMatrix type="matrix" values="0 0 0 0 0 0 0 0 0 0 0 0 0 0 0 0 0 0 0.25 0"/>
<feBlend mode="normal" in2="BackgroundImageFix" result="effect1_dropShadow"/>
<feBlend mode="normal" in="SourceGraphic" in2="effect1_dropShadow" result="shape"/>
</filter>
<filter id="filter3_d" x="27.125" y="318" width="254.219" height="70" filterUnits="userSpaceOnUse" color-interpolation-filters="sRGB">
<feFlood flood-opacity="0" result="BackgroundImageFix"/>
<feColorMatrix in="SourceAlpha" type="matrix" values="0 0 0 0 0 0 0 0 0 0 0 0 0 0 0 0 0 0 127 0" result="hardAlpha"/>
<feOffset dx="3" dy="5"/>
<feGaussianBlur stdDeviation="2"/>
<feComposite in2="hardAlpha" operator="out"/>
<feColorMatrix type="matrix" values="0 0 0 0 0 0 0 0 0 0 0 0 0 0 0 0 0 0 0.25 0"/>
<feBlend mode="normal" in2="BackgroundImageFix" result="effect1_dropShadow"/>
<feBlend mode="normal" in="SourceGraphic" in2="effect1_dropShadow" result="shape"/>
</filter>
</defs>
</svg>
