<svg width="308" height="309" viewBox="0 0 308 309" fill="none" xmlns="http://www.w3.org/2000/svg">
<g filter="url(#filter0_d)">
<mask id="path-1-inside-1" fill="white">
<path d="M301 150C301 179.667 292.203 208.668 275.72 233.336C259.238 258.003 235.811 277.229 208.403 288.582C180.994 299.935 150.834 302.906 121.736 297.118C92.6393 291.33 65.9119 277.044 44.934 256.066C23.9561 235.088 9.66999 208.361 3.88221 179.264C-1.90558 150.166 1.06493 120.006 12.4181 92.5975C23.7712 65.1886 42.9971 41.7618 67.6645 25.2796C92.3318 8.79735 121.333 -3.53778e-07 151 0L151 99.7102C141.054 99.7102 131.331 102.66 123.06 108.186C114.79 113.711 108.345 121.566 104.538 130.755C100.732 139.944 99.7361 150.056 101.676 159.811C103.617 169.566 108.407 178.527 115.44 185.56C122.473 192.593 131.434 197.383 141.189 199.324C150.944 201.264 161.056 200.268 170.245 196.462C179.434 192.655 187.289 186.21 192.814 177.94C198.34 169.669 201.29 159.946 201.29 150H301Z"/>
</mask>
<path d="M301 150C301 179.667 292.203 208.668 275.72 233.336C259.238 258.003 235.811 277.229 208.403 288.582C180.994 299.935 150.834 302.906 121.736 297.118C92.6393 291.33 65.9119 277.044 44.934 256.066C23.9561 235.088 9.66999 208.361 3.88221 179.264C-1.90558 150.166 1.06493 120.006 12.4181 92.5975C23.7712 65.1886 42.9971 41.7618 67.6645 25.2796C92.3318 8.79735 121.333 -3.53778e-07 151 0L151 99.7102C141.054 99.7102 131.331 102.66 123.06 108.186C114.79 113.711 108.345 121.566 104.538 130.755C100.732 139.944 99.7361 150.056 101.676 159.811C103.617 169.566 108.407 178.527 115.44 185.56C122.473 192.593 131.434 197.383 141.189 199.324C150.944 201.264 161.056 200.268 170.245 196.462C179.434 192.655 187.289 186.21 192.814 177.94C198.34 169.669 201.29 159.946 201.29 150H301Z" fill="#810000"/>
<path d="M301 150C301 179.667 292.203 208.668 275.72 233.336C259.238 258.003 235.811 277.229 208.403 288.582C180.994 299.935 150.834 302.906 121.736 297.118C92.6393 291.33 65.9119 277.044 44.934 256.066C23.9561 235.088 9.66999 208.361 3.88221 179.264C-1.90558 150.166 1.06493 120.006 12.4181 92.5975C23.7712 65.1886 42.9971 41.7618 67.6645 25.2796C92.3318 8.79735 121.333 -3.53778e-07 151 0L151 99.7102C141.054 99.7102 131.331 102.66 123.06 108.186C114.79 113.711 108.345 121.566 104.538 130.755C100.732 139.944 99.7361 150.056 101.676 159.811C103.617 169.566 108.407 178.527 115.44 185.56C122.473 192.593 131.434 197.383 141.189 199.324C150.944 201.264 161.056 200.268 170.245 196.462C179.434 192.655 187.289 186.21 192.814 177.94C198.34 169.669 201.29 159.946 201.29 150H301Z" stroke="#630000" stroke-width="20" mask="url(#path-1-inside-1)"/>
</g>
<g filter="url(#filter1_d)">
<path d="M236 9.51431L256.566 42.8082L257.187 43.8135L258.192 44.4344L291.486 65L258.192 85.5656L257.187 86.1865L256.566 87.1918L236 120.486L215.434 87.1918L214.813 86.1865L213.808 85.5656L180.514 65L213.808 44.4344L214.813 43.8135L215.434 42.8082L236 9.51431Z" stroke="#EEEBDD" stroke-width="10" shape-rendering="crispEdges"/>
</g>
<g filter="url(#filter2_d)">
<path d="M153.598 114.5L183.043 165.5C184.198 167.5 182.754 170 180.445 170H121.555C119.246 170 117.802 167.5 118.957 165.5L148.402 114.5C149.557 112.5 152.443 112.5 153.598 114.5Z" stroke="#EEEBDD" stroke-width="10" shape-rendering="crispEdges"/>
</g>
<defs>
<filter id="filter0_d" x="-6.10352e-05" y="0" width="308" height="309" filterUnits="userSpaceOnUse" color-interpolation-filters="sRGB">
<feFlood flood-opacity="0" result="BackgroundImageFix"/>
<feColorMatrix in="SourceAlpha" type="matrix" values="0 0 0 0 0 0 0 0 0 0 0 0 0 0 0 0 0 0 127 0" result="hardAlpha"/>
<feOffset dx="3" dy="5"/>
<feGaussianBlur stdDeviation="2"/>
<feComposite in2="hardAlpha" operator="out"/>
<feColorMatrix type="matrix" values="0 0 0 0 0 0 0 0 0 0 0 0 0 0 0 0 0 0 0.25 0"/>
<feBlend mode="normal" in2="BackgroundImageFix" result="effect1_dropShadow"/>
<feBlend mode="normal" in="SourceGraphic" in2="effect1_dropShadow" result="shape"/>
</filter>
<filter id="filter1_d" x="170" y="0" width="138" height="139" filterUnits="userSpaceOnUse" color-interpolation-filters="sRGB">
<feFlood flood-opacity="0" result="BackgroundImageFix"/>
<feColorMatrix in="SourceAlpha" type="matrix" values="0 0 0 0 0 0 0 0 0 0 0 0 0 0 0 0 0 0 127 0" result="hardAlpha"/>
<feOffset dx="3" dy="5"/>
<feGaussianBlur stdDeviation="2"/>
<feComposite in2="hardAlpha" operator="out"/>
<feColorMatrix type="matrix" values="0 0 0 0 0 0 0 0 0 0 0 0 0 0 0 0 0 0 0.25 0"/>
<feBlend mode="normal" in2="BackgroundImageFix" result="effect1_dropShadow"/>
<feBlend mode="normal" in="SourceGraphic" in2="effect1_dropShadow" result="shape"/>
</filter>
<filter id="filter2_d" x="112.543" y="108" width="82.9136" height="76" filterUnits="userSpaceOnUse" color-interpolation-filters="sRGB">
<feFlood flood-opacity="0" result="BackgroundImageFix"/>
<feColorMatrix in="SourceAlpha" type="matrix" values="0 0 0 0 0 0 0 0 0 0 0 0 0 0 0 0 0 0 127 0" result="hardAlpha"/>
<feOffset dx="3" dy="5"/>
<feGaussianBlur stdDeviation="2"/>
<feComposite in2="hardAlpha" operator="out"/>
<feColorMatrix type="matrix" values="0 0 0 0 0 0 0 0 0 0 0 0 0 0 0 0 0 0 0.25 0"/>
<feBlend mode="normal" in2="BackgroundImageFix" result="effect1_dropShadow"/>
<feBlend mode="normal" in="SourceGraphic" in2="effect1_dropShadow" result="shape"/>
</filter>
</defs>
</svg>
